<?xml version="1.0" standalone="no"?>
<!DOCTYPE svg PUBLIC "-//W3C//DTD SVG 20010904//EN"
 "http://www.w3.org/TR/2001/REC-SVG-20010904/DTD/svg10.dtd">
<svg version="1.0" xmlns="http://www.w3.org/2000/svg"
 width="50.000000pt" height="50.000000pt" viewBox="0 0 50.000000 50.000000"
 preserveAspectRatio="xMidYMid meet">

<g transform="translate(0.000000,50.000000) scale(0.100000,-0.100000)"
fill="#000000" stroke="none">
<path d="M220 308 l0 -132 -40 39 -40 39 -22 -22 -23 -22 78 -78 77 -77 77 77
78 78 -23 22 -22 22 -40 -39 -40 -39 0 132 0 132 -30 0 -30 0 0 -132z m50 -13
c0 -74 3 -135 7 -135 4 0 24 17 45 37 30 29 41 34 50 25 10 -10 -2 -27 -55
-80 l-67 -67 -67 67 c-53 53 -65 70 -55 80 9 9 20 4 50 -25 21 -20 41 -37 45
-37 4 0 7 61 7 135 0 128 1 135 20 135 19 0 20 -7 20 -135z"/>
<path d="M165 180 c10 -11 20 -20 23 -20 3 0 -3 9 -13 20 -10 11 -20 20 -23
20 -3 0 3 -9 13 -20z"/>
<path d="M305 158 l-40 -43 43 40 c39 36 47 45 39 45 -2 0 -21 -19 -42 -42z"/>
</g>
</svg>
